<svg xmlns="http://www.w3.org/2000/svg" viewBox="0 0 1024 1024" fill="none">
  <defs>
    <linearGradient id="bg" x1="128" y1="128" x2="896" y2="896" gradientUnits="userSpaceOnUse">
      <stop stop-color="#12121a"/>
      <stop offset="1" stop-color="#060608"/>
    </linearGradient>
    <linearGradient id="mark" x1="280" y1="220" x2="760" y2="820" gradientUnits="userSpaceOnUse">
      <stop stop-color="#6b7fff"/>
      <stop offset="0.55" stop-color="#8b9bff"/>
      <stop offset="1" stop-color="#3ddbd9"/>
    </linearGradient>
    <filter id="glow" x="-20%" y="-20%" width="140%" height="140%">
      <feGaussianBlur stdDeviation="18" result="blur"/>
      <feMerge>
        <feMergeNode in="blur"/>
        <feMergeNode in="SourceGraphic"/>
      </feMerge>
    </filter>
  </defs>
  <rect width="1024" height="1024" rx="224" fill="url(#bg)"/>
  <rect x="64" y="64" width="896" height="896" rx="192" stroke="rgba(255,255,255,0.08)" stroke-width="8"/>
  <path
    fill="url(#mark)"
    filter="url(#glow)"
    d="M300 248h198c118 0 198 62 198 168 0 62-28 108-78 134 64 24 104 78 104 154 0 118-92 188-226 188H300V248zm118 118v156h74c52 0 82-26 82-78s-30-78-82-78h-74zm0 274v178h88c64 0 102-32 102-90 0-56-38-88-102-88h-88z"
  />
</svg>
