<svg xmlns="http://www.w3.org/2000/svg" viewBox="0 0 64 64" fill="none">
  <rect width="64" height="64" rx="14" fill="#12121a"/>
  <path fill="#6b7fff" d="M18 14h12.4c7.4 0 12.4 3.9 12.4 10.5 0 3.9-1.8 6.8-4.9 8.4 4 1.5 6.5 4.9 6.5 9.7 0 7.4-5.8 11.8-14.2 11.8H18V14zm7.4 7.4v9.8h4.6c3.3 0 5.1-1.6 5.1-4.9s-1.8-4.9-5.1-4.9h-4.6zm0 17.2v11.1h5.5c4 0 6.4-2 6.4-5.6 0-3.5-2.4-5.5-6.4-5.5h-5.5z"/>
  <path fill="#3ddbd9" d="M18 14h12.4c7.4 0 12.4 3.9 12.4 10.5 0 3.9-1.8 6.8-4.9 8.4 4 1.5 6.5 4.9 6.5 9.7 0 7.4-5.8 11.8-14.2 11.8H18V14zm7.4 7.4v9.8h4.6c3.3 0 5.1-1.6 5.1-4.9s-1.8-4.9-5.1-4.9h-4.6zm0 17.2v11.1h5.5c4 0 6.4-2 6.4-5.6 0-3.5-2.4-5.5-6.4-5.5h-5.5z" opacity=".45"/>
</svg>
